<svg version="1.1" xmlns="http://www.w3.org/2000/svg" xmlns:xlink="http://www.w3.org/1999/xlink" x="0px" y="0px" width="48px" height="48px" viewBox="0 0 48 48" enable-background="new 0 0 48 48" xml:space="preserve">
<path fill="#FF1744" d="M26,25.9c2.4-0.4,4.7-1.5,6.5-3.3c2.3-2.3,3.5-5.3,3.5-8.5c0-3.2-1.2-6.2-3.5-8.5c-2.3-2.3-5.3-3.5-8.5-3.5
  c-3.2,0-6.2,1.2-8.5,3.5l0,0c-2.3,2.3-3.5,5.3-3.5,8.5c0,5.9,4.3,10.9,10,11.8V34l-8,0l0,4l8,0v8h4v-8l8,0v-4l-8,0V25.9z M16,14.1
  c0-2.1,0.8-4.1,2.3-5.7c1.5-1.5,3.5-2.3,5.7-2.3c4.4,0,8,3.6,8,8c0,2.1-0.8,4.1-2.3,5.7c-1.5,1.5-3.5,2.3-5.7,2.3
  C19.6,22.1,16,18.5,16,14.1z"></path>
</svg>
