<svg version="1.1" xmlns="http://www.w3.org/2000/svg" xmlns:xlink="http://www.w3.org/1999/xlink" x="0px" y="0px" width="48px" height="48px" viewBox="0 0 48 48" enable-background="new 0 0 48 48" xml:space="preserve">
<g>
  <rect x="30.793" y="4.186" transform="matrix(0.7072 0.707 -0.707 0.7072 20.3549 -18.733)" fill="#2196F3" width="4" height="22.042"></rect>
  <path fill="#2196F3" d="M18,42L18,42c-3.206,0-6.219-1.248-8.485-3.515C7.248,36.219,6,33.205,6,30s1.248-6.219,3.515-8.485
    C11.781,19.248,14.794,18,18,18s6.219,1.248,8.485,3.515c4.68,4.679,4.68,12.292,0,16.971C24.218,40.752,21.205,42,18,42z M18,22
    c-2.137,0-4.146,0.832-5.657,2.343c-3.119,3.119-3.119,8.195,0,11.314C13.854,37.168,15.862,38,18,38
    c2.137,0,4.146-0.832,5.657-2.343c3.119-3.119,3.119-8.195,0-11.314C22.146,22.832,20.137,22,18,22z"></path>
  <rect x="25" y="6" fill="#2196F3" width="17" height="4"></rect>
  <rect x="38" y="6" fill="#2196F3" width="4" height="17"></rect>
</g>
</svg>
