<svg version="1.1" xmlns="http://www.w3.org/2000/svg" xmlns:xlink="http://www.w3.org/1999/xlink" x="0px" y="0px" width="48px" height="48px" viewBox="0 0 48 48" enable-background="new 0 0 48 48" xml:space="preserve">
<g>
  <path fill="#2196F3" d="M32,3H22v4h7.2l-9.8,9.8c-1.7-1.1-3.7-1.8-5.9-1.8C7.7,15,3,19.7,3,25.5S7.7,36,13.5,36S24,31.3,24,25.5
    c0-2.2-0.7-4.2-1.8-5.9L32,9.8V16h4V7V3H32z M13.5,32C9.9,32,7,29.1,7,25.5S9.9,19,13.5,19s6.5,2.9,6.5,6.5S17.1,32,13.5,32z"></path>
  <path fill="#2196F3" d="M41,12h-9v4h6.2l-9.8,9.8c-1.7-1.1-3.7-1.8-5.9-1.8C16.7,24,12,28.7,12,34.5S16.7,45,22.5,45
    S33,40.3,33,34.5c0-2.2-0.7-4.2-1.8-5.9l9.8-9.8V26h4V16v-4H41z M22.5,41c-3.6,0-6.5-2.9-6.5-6.5s2.9-6.5,6.5-6.5s6.5,2.9,6.5,6.5
    S26.1,41,22.5,41z"></path>
</g>
<path fill="#1565C0" d="M22.5,28c0.4,0,0.8,0,1.2,0.1c-0.2,0.7-0.4,1.3-0.7,1.9c-0.2,0-0.3,0-0.5,0c-1.1,0-2.9,0.1-4.7,0.4
  c0.4-0.4,0.8-0.8,1.2-1.3C19.9,28.4,21.2,28,22.5,28z M19.9,24.3c0.8-0.2,1.7-0.3,2.6-0.3c0.5,0,0.9,0,1.4,0.1
  c-0.1-0.7-0.3-1.4-0.5-2.1c-0.3,0-0.6,0-0.9,0c-1.1,0-2.2,0.2-3.3,0.4C19.5,23,19.8,23.7,19.9,24.3z M16.1,35.7
  c-0.8,0.2-1.7,0.3-2.6,0.3c-0.5,0-0.9,0-1.4-0.1c0.1,0.7,0.3,1.4,0.5,2.1c0.3,0,0.6,0,0.9,0c1.1,0,2.2-0.2,3.3-0.4
  C16.5,37,16.2,36.3,16.1,35.7z M17.1,30.9c0.3-0.5,0.7-0.9,1.2-1.3c-1.8,0.3-3.7,0.4-4.7,0.4c-0.2,0-0.3,0-0.5,0
  c-0.3,0.6-0.5,1.3-0.7,1.9c0.4,0.1,0.8,0.1,1.2,0.1C14.8,32,16.1,31.6,17.1,30.9z"></path>
</svg>
