<svg xmlns="http://www.w3.org/2000/svg" width="50" height="50" viewBox="0 0 50 50">
    <path d="M 25 0 C 11.204726 0 0 11.204726 0 25 C 0 38.795274 11.204726 50 25 50 C 38.795274 50 50 38.795274 50 25 C 50 11.204726 38.795274 0 25 0 z M 25 2 C 37.714394 2 48 12.285606 48 25 C 48 31.675184 45.158185 37.675707 40.625 41.875 C 36.845293 39.149056 31.117729 38.705499 29.9375 35.53125 C 29.9115 35.24425 29.89 34.7905 29.875 34.3125 C 34.22 33.8675 37.28125 32.80775 37.28125 31.59375 C 37.26925 31.59175 37.25 31.55125 37.25 31.53125 C 34.002 28.60425 40.07025 7.79675 28.78125 8.21875 C 28.07225 7.61875 26.8425 7.09375 25.0625 7.09375 C 9.7715 8.25075 16.51525 27.88575 13.03125 31.59375 C 13.03125 31.59375 13.03025 31.624 13.03125 31.625 C 13.04525 32.814 15.99975 33.82525 20.21875 34.28125 C 20.20675 34.57125 20.18 34.93025 20.125 35.53125 C 18.942236 38.711428 13.168173 39.13472 9.375 41.875 C 4.841815 37.675707 2 31.675184 2 25 C 2 12.285606 12.285606 2 25 2 z"></path>
</svg>
