<svg version="1.1" xmlns="http://www.w3.org/2000/svg" xmlns:xlink="http://www.w3.org/1999/xlink" x="0px" y="0px" width="48px" height="48px" viewBox="0 0 48 48" enable-background="new 0 0 48 48" xml:space="preserve">
<g>
  <path fill="#FF1744" d="M19,24.8c5.1-0.9,9-5.4,9-10.8c0-6.1-4.9-11-11-11S6,7.9,6,14c0,5.4,3.9,9.9,9,10.8l0,9.2l-7,0l0,4l7,0l0,7
    h4v-7l7,0v-4l-7,0V24.8z M10,14c0-3.9,3.1-7,7-7s7,3.1,7,7s-3.1,7-7,7S10,17.9,10,14z"></path>
  <path fill="#FF1744" d="M33,24.8c5.1-0.9,9-5.4,9-10.8c0-6.1-4.9-11-11-11S20,7.9,20,14c0,5.4,3.9,9.9,9,10.8l0,9.2l-7,0l0,4l7,0
    l0,7h4v-7l7,0v-4l-7,0V24.8z M24,14c0-3.9,3.1-7,7-7s7,3.1,7,7s-3.1,7-7,7S24,17.9,24,14z"></path>
</g>
<path fill="#D50000" d="M24.3,5.3c0.5-0.3,0.9-0.7,1.4-0.9c1,0.9,1.9,2.1,2.5,3.2c-0.1,0-0.1,0.1-0.2,0.1c-0.5,0.3-1.1,0.6-1.5,1
  C25.9,7.5,25,6.4,24,5.5C24.1,5.4,24.2,5.4,24.3,5.3z M24,14c0-2-0.7-4-2.6-5.4c-0.3,0.6-0.6,1.3-0.9,2C21.4,11.2,23.3,12.3,24,14z
   M21.4,19.4c-0.5,0.4-1.1,0.8-1.7,1c0.7,1.1,1.6,2.3,2.5,3.2c0.6-0.3,1.2-0.7,1.7-1.1C23,21.6,22.1,20.6,21.4,19.4z M24,14
  c0,2.3,1.1,4.2,2.6,5.4c0.3-0.6,0.6-1.3,0.9-2C26.4,16.7,24.8,15.3,24,14z"></path>
</svg>
