<svg version="1.1" xmlns="http://www.w3.org/2000/svg" xmlns:xlink="http://www.w3.org/1999/xlink" x="0px" y="0px" width="48px" height="48px" viewBox="0 0 48 48" enable-background="new 0 0 48 48" xml:space="preserve">
<g>
  <rect x="10.042" y="28.239" transform="matrix(0.7071 0.7071 -0.7071 0.7071 28.9514 2.0162)" fill="#F44336" width="4" height="15.434"></rect>
  <rect x="4.409" y="34.543" transform="matrix(0.7074 0.7068 -0.7068 0.7074 29.2046 2.5335)" fill="#F44336" width="14.265" height="4.001"></rect>
  <path fill="#F44336" d="M30.817,24.19c-0.72-3.514-3.494-6.288-7.008-7.008C22.713,18.101,22,19.462,22,21c2.757,0,5,2.243,5,5
    c0,1.538-0.713,2.899-1.81,3.817C24.322,30.545,23.219,31,22,31c-2.757,0-5-2.243-5-5c0-1.219,0.455-2.322,1.183-3.19
    C18.063,22.225,18,21.619,18,21c0-1.184,0.235-2.312,0.652-3.348C15.344,18.984,13,22.221,13,26c0,4.963,4.037,9,9,9
    c3.779,0,7.016-2.344,8.348-5.652C30.765,28.312,31,27.184,31,26C31,25.381,30.938,24.775,30.817,24.19z"></path>
</g>
<g>
  <rect x="31" y="5" fill="#2196F3" width="12" height="4"></rect>
  <rect x="39" y="5" fill="#2196F3" width="4" height="12"></rect>
  <rect x="34.097" y="5.523" transform="matrix(0.7072 0.707 -0.707 0.7072 18.9839 -22.0347)" fill="#2196F3" width="4" height="12.761"></rect>
  <path fill="#2196F3" d="M27,12c-3.779,0-7.016,2.344-8.348,5.652C18.235,18.688,18,19.816,18,21c0,0.619,0.063,1.225,0.183,1.81
    c0.72,3.514,3.494,6.288,7.008,7.008C26.287,28.899,27,27.538,27,26c-2.757,0-5-2.243-5-5c0-1.538,0.713-2.899,1.81-3.817
    C24.678,16.455,25.781,16,27,16c2.757,0,5,2.243,5,5c0,1.219-0.455,2.322-1.183,3.19C30.938,24.775,31,25.381,31,26
    c0,1.184-0.235,2.312-0.652,3.348C33.656,28.016,36,24.779,36,21C36,16.037,31.963,12,27,12z"></path>
</g>
</svg>